<?xml version="1.0" encoding="utf-8"?>
<!-- Generator: Adobe Illustrator 27.1.1, SVG Export Plug-In . SVG Version: 6.00 Build 0)  -->
<svg version="1.1" id="club" xmlns="http://www.w3.org/2000/svg" xmlns:xlink="http://www.w3.org/1999/xlink" x="0px" y="0px"
	 viewBox="0 0 24 24" style="enable-background:new 0 0 24 24;" xml:space="preserve">
<style type="text/css">
	.st0{stroke:#000000;stroke-width:0.25;stroke-miterlimit:10;}
</style>
<path class="st0" d="M21,12.5c0-2.3-1.4-4.3-3.5-5.1c0-3-2.5-5.5-5.5-5.5S6.5,4.3,6.5,7.4c-2.8,1.1-4.2,4.3-3.1,7.1
	C4.2,16.6,6.2,18,8.5,18h0.2c-0.3,0.9-0.7,1.7-1.2,2.4c-0.3,0.4-0.3,1.1,0.2,1.4C7.8,21.9,8,22,8.2,22h7.5c0.6,0,1-0.4,1-1
	c0-0.2-0.1-0.5-0.2-0.6c-0.6-0.7-1-1.5-1.2-2.4h0.2C18.5,18,21,15.5,21,12.5z M10.1,20c0.4-0.8,0.7-1.7,0.8-2.6
	c0.4-0.2,0.8-0.4,1.1-0.7c0.3,0.3,0.7,0.5,1.1,0.7c0.1,0.9,0.4,1.8,0.8,2.6H10.1z M12.8,14.7L12.8,14.7l-0.2-0.2h-0.1l-0.2-0.1
	l-0.2-0.1h-0.4l-0.2,0.1c-0.1,0-0.1,0.1-0.2,0.1h-0.1l-0.1,0.1l-0.1,0.1c-1.2,1.5-3.4,1.7-4.9,0.5s-1.7-3.4-0.5-4.9
	c0.5-0.6,1.2-1,2-1.2c0.1,0,0.1,0,0.2-0.1C8,9,8,9,8.1,8.9c0.1,0,0.1-0.1,0.1-0.1c0.1-0.1,0.2-0.2,0.2-0.3c0-0.1,0.1-0.1,0.1-0.2
	c0-0.1,0-0.1,0-0.2c0-0.1,0-0.1,0-0.2c0-0.1,0-0.3,0-0.4C8.5,5.6,10.1,4,12,4s3.5,1.6,3.5,3.5c0,0.1,0,0.3,0,0.4c0,0.1,0,0.1,0,0.2
	c0,0.1,0,0.1,0,0.2c0,0.1,0,0.1,0.1,0.2c0,0.1,0.1,0.2,0.2,0.3c0,0,0.1,0.1,0.1,0.1C16,9,16,9,16.1,9c0.1,0,0.1,0.1,0.2,0.1
	c1.9,0.4,3.1,2.3,2.7,4.2s-2.3,3.1-4.2,2.7C14,15.7,13.3,15.3,12.8,14.7L12.8,14.7z"/>
<g>
	<g>
		<path d="M12.1,17.2c7.7,0,7.7-12,0-12C4.4,5.2,4.4,17.2,12.1,17.2L12.1,17.2z"/>
	</g>
</g>
<g>
	<g>
		<path d="M10.8,18.1c7.7,0,7.7-12,0-12C3.1,6.1,3.1,18.1,10.8,18.1L10.8,18.1z"/>
	</g>
</g>
<g>
	<g>
		<path d="M13.5,17.8c7.7,0,7.7-12,0-12C5.8,5.8,5.8,17.8,13.5,17.8L13.5,17.8z"/>
	</g>
</g>
<g>
	<g>
		<path d="M11.1,7c0.5-0.5,1.5-0.5,2-0.1c0.7,0.5,1.7,0.1,2.1-0.5c0.4-0.8,0.1-1.6-0.5-2.1C13.1,3.2,10.3,3.5,9,4.9
			C7.7,6.3,9.8,8.5,11.1,7L11.1,7z"/>
	</g>
</g>
<g>
	<g>
		<path d="M11.7,20.9c0.3-0.1,0.6-0.2,0.8-0.3c0.1-0.1-0.2,0-0.3,0.1c0.2,0,0.4,0,0.6-0.1c0.7-0.2,1.1-0.7,1.5-1.2
			c0.5-0.6,0.1-1.7-0.5-2.1c-0.8-0.4-1.6-0.1-2.1,0.5c0.1-0.2,0.1-0.2,0-0.1c-0.1,0.1-0.1,0.1,0.1,0c0.1-0.1,0.2-0.1,0.3-0.1
			c-0.2,0-0.4,0-0.5,0.1c-0.2,0.1-0.4,0.2-0.6,0.3C11,18,10.9,18,10.9,18c0.2-0.1,0.2-0.1,0.1-0.1c-0.8,0.2-1.3,1.1-1,1.8
			C10.1,20.6,10.9,21,11.7,20.9L11.7,20.9z"/>
	</g>
</g>
<g>
	<g>
		<path d="M3.5,11c0,0.4-0.2,0.8-0.2,1.3c0,0.5,0.1,1.1,0.2,1.6c0.3,1,0.8,1.8,1.5,2.5c1.3,1.4,3.5-0.7,2.1-2.1
			c-0.4-0.4-0.7-0.9-0.8-1.5c-0.1-0.6,0.2-1.1,0.1-1.8C6.5,9.1,3.5,9.1,3.5,11L3.5,11z"/>
	</g>
</g>
</svg>
