<?xml version="1.0" encoding="utf-8"?>
<!-- Generator: Adobe Illustrator 27.1.1, SVG Export Plug-In . SVG Version: 6.00 Build 0)  -->
<svg version="1.1" id="heart" xmlns="http://www.w3.org/2000/svg" xmlns:xlink="http://www.w3.org/1999/xlink" x="0px" y="0px"
	 viewBox="0 0 24 24" style="enable-background:new 0 0 24 24;" xml:space="preserve">
<style type="text/css">
	.st0{fill:#FF0000;}
</style>
<path class="st0" d="M20.2,5C18,2.8,14.5,2.5,12,4.4C9.2,2.3,5.3,2.9,3.2,5.6c-1.9,2.5-1.6,6,0.6,8.2l6.2,6.2c1.1,1.1,2.8,1.1,3.9,0
	l6.2-6.2C22.6,11.4,22.6,7.4,20.2,5z M18.8,12.5l-6.2,6.2c-0.3,0.3-0.8,0.3-1.1,0c0,0,0,0,0,0l-6.2-6.2c-1.6-1.7-1.6-4.3,0-6
	c1.7-1.6,4.3-1.6,6,0c0.4,0.4,1,0.4,1.4,0c0,0,0,0,0,0c1.7-1.6,4.3-1.6,6,0C20.3,8.1,20.4,10.7,18.8,12.5L18.8,12.5z"/>
<g>
	<g>
		<path class="st0" d="M9.2,16.4c7.7,0,7.7-12,0-12C1.5,4.4,1.5,16.4,9.2,16.4L9.2,16.4z"/>
	</g>
</g>
<g>
	<g>
		<path class="st0" d="M14.6,16.2c7.7,0,7.7-12,0-12C6.9,4.2,6.9,16.2,14.6,16.2L14.6,16.2z"/>
	</g>
</g>
<g>
	<g>
		<path class="st0" d="M11.9,19.1c7.7,0,7.7-12,0-12C4.2,7.1,4.2,19.1,11.9,19.1L11.9,19.1z"/>
	</g>
</g>
</svg>
