<?xml version="1.0" encoding="utf-8"?>
<!-- Generator: Adobe Illustrator 27.1.1, SVG Export Plug-In . SVG Version: 6.00 Build 0)  -->
<svg version="1.1" id="spade" xmlns="http://www.w3.org/2000/svg" xmlns:xlink="http://www.w3.org/1999/xlink" x="0px" y="0px"
	 viewBox="0 0 24 24" style="enable-background:new 0 0 24 24;" xml:space="preserve">
<path d="M21.1,12.3c0-1.5-0.6-2.9-1.7-4L14,2.8c-1.1-1.1-2.9-1.1-4,0L4.6,8.2c-1.1,1.1-1.7,2.5-1.7,4c0,3.1,2.5,5.7,5.6,5.8
	c0,0,0.1,0,0.1,0l0,0c-0.3,0.9-0.7,1.7-1.2,2.4c-0.3,0.4-0.3,1.1,0.1,1.4C7.8,21.9,8,22,8.2,22h7.5c0.6,0,1-0.4,1-1
	c0-0.2-0.1-0.5-0.2-0.6c-0.6-0.7-1-1.5-1.2-2.4C18.5,18,21,15.5,21.1,12.3C21.1,12.3,21.1,12.3,21.1,12.3L21.1,12.3z M18,14.9
	c-1,0.9-2.4,1.3-3.7,0.9c-0.1,0-0.1,0-0.2,0H14l0,0c-0.1,0-0.1,0-0.2,0.1h-0.1c0,0-0.1,0.1-0.1,0.1c-0.1,0-0.1,0.1-0.2,0.1
	c0,0,0,0.1-0.1,0.1c0,0.1-0.1,0.2-0.1,0.2l0,0c0,0.1,0,0.1,0,0.2c0,0.1,0,0.1,0,0.2l0,0l0,0c0.1,1.1,0.4,2.1,0.8,3.1h-3.9
	c0.5-0.9,0.8-2,0.9-3l0,0l0,0c0-0.1,0-0.1,0-0.2c0-0.1,0-0.1,0-0.2l0,0c0-0.1-0.1-0.2-0.1-0.2c0,0,0-0.1-0.1-0.1
	c0-0.1-0.1-0.1-0.2-0.1c0,0-0.1-0.1-0.1-0.1h-0.1c-0.1,0-0.2-0.1-0.2-0.1l0,0H9.9c-0.1,0-0.1,0-0.2,0C8.4,16.3,7,15.9,6,14.9
	c-0.7-0.7-1.1-1.6-1.1-2.6c0-1,0.4-1.9,1.1-2.6l5.4-5.4c0.3-0.3,0.8-0.3,1.1,0L18,9.6c0.7,0.7,1.1,1.6,1.1,2.6
	C19.1,13.3,18.7,14.2,18,14.9z"/>
<g>
	<g>
		<path d="M10.8,17.5c7.7,0,7.7-12,0-12C3.1,5.5,3.1,17.5,10.8,17.5L10.8,17.5z"/>
	</g>
</g>
<g>
	<g>
		<path d="M10.4,17.5c7.7,0,7.7-12,0-12C2.7,5.5,2.7,17.5,10.4,17.5L10.4,17.5z"/>
	</g>
</g>
<g>
	<g>
		<path d="M12.2,15.9c7.7,0,7.7-12,0-12C4.4,3.9,4.4,15.9,12.2,15.9L12.2,15.9z"/>
	</g>
</g>
<g>
	<g>
		<path d="M13.1,17.7c7.7,0,7.7-12,0-12C5.3,5.7,5.3,17.7,13.1,17.7L13.1,17.7z"/>
	</g>
</g>
<g>
	<g>
		<path d="M13.4,17.7c7.7,0,7.7-12,0-12C5.7,5.7,5.7,17.7,13.4,17.7L13.4,17.7z"/>
	</g>
</g>
<g>
	<g>
		<path d="M9.9,17.8c-0.4,0.7-0.6,1.6-0.2,2.3c0.5,0.8,1.4,0.9,2.2,0.8c1.3-0.2,2.4-1.3,2.4-2.7c-1,0.1-2,0.3-2.9,0.4
			c0.3,0.8,0.5,1.6,1.3,2.1c0.7,0.4,1.7,0.1,2.1-0.5c0.4-0.7,0.2-1.6-0.5-2.1c0.4,0.6,0.5,0.7,0.4,0.4c0-0.1-0.1-0.2-0.1-0.2
			c-0.1-0.2-0.1-0.3-0.2-0.5c-0.3-0.7-0.9-1.2-1.6-1.1c-0.7,0.1-1.3,0.7-1.3,1.5c0-0.1,0.1-0.2,0.1-0.3c0-0.1-0.2,0.1,0,0
			c0.1-0.1,0,0-0.1,0c-0.3,0.1,0,0,0.1,0c0.2,0.1,0.4,0.3,0.7,0.4c0,0,0,0-0.1-0.1c0.1,0.4,0.3,0.7,0.4,1.1c0,0.1-0.1,0.1,0,0
			c0-0.1,0-0.1,0,0c0.4-0.7,0.2-1.6-0.5-2.1C11.3,16.9,10.3,17.1,9.9,17.8L9.9,17.8z"/>
	</g>
</g>
</svg>
